<svg xmlns="http://www.w3.org/2000/svg" ><symbol id="analytics-2" viewBox="0 0 505 505"><title>analytics-2</title><circle style="fill:#FFD05B;" cx="252.5" cy="252.5" r="252.5"/><path style="fill:#324A5E;" d="M375.5,427.5h-246c-2.6,0-4.8-2.1-4.8-4.8V82.2c0-2.6,2.1-4.8,4.8-4.8h246c2.6,0,4.8,2.1,4.8,4.8 v340.6C380.2,425.4,378.1,427.5,375.5,427.5z"/><rect id="SVGCleanerId_0" x="146.9" y="116.1" style="fill:#FFFFFF;" width="211.2" height="266.1"/><g> <path style="fill:#2B3B4E;" d="M296,101.1h-60.3c-2.5,0-4.6-2.1-4.6-4.6l0,0c0-2.5,2.1-4.6,4.6-4.6H296c2.5,0,4.6,2,4.6,4.6l0,0 C300.6,99,298.5,101.1,296,101.1z"/> <path style="fill:#2B3B4E;" d="M217,101.1h-7.9c-2.5,0-4.6-2.1-4.6-4.6l0,0c0-2.5,2.1-4.6,4.6-4.6h7.9c2.5,0,4.6,2,4.6,4.6l0,0 C221.5,99,219.5,101.1,217,101.1z"/> <circle style="fill:#2B3B4E;" cx="252.5" cy="404.2" r="12.5"/> </g><g> <rect id="SVGCleanerId_0_1_" x="146.9" y="116.1" style="fill:#FFFFFF;" width="211.2" height="266.1"/> </g><g> <rect x="178.7" y="255.5" style="fill:#E6E9EE;" width="147.5" height="10.8"/> <rect x="178.7" y="284.9" style="fill:#E6E9EE;" width="147.5" height="10.8"/> <rect x="178.7" y="314.4" style="fill:#E6E9EE;" width="147.5" height="10.8"/> <rect x="178.7" y="343.8" style="fill:#E6E9EE;" width="92.6" height="10.8"/> </g><polygon style="fill:#54C0EB;" points="262.1,224 237.8,181.3 225,216.5 218,213.9 236.4,163.7 260.6,206.4 280,153.4 287,156 "/><g> <circle style="fill:#84DBFF;" cx="221.5" cy="215.2" r="11.3"/> <circle style="fill:#84DBFF;" cx="237.1" cy="172.5" r="11.3"/> <circle style="fill:#84DBFF;" cx="261.4" cy="215.2" r="11.3"/> <circle style="fill:#84DBFF;" cx="283.5" cy="154.7" r="11.3"/> </g></symbol><symbol id="analytics-1" viewBox="0 0 505 505"><title>analytics-1</title><circle style="fill:#FFD05B;" cx="252.5" cy="252.5" r="252.5"/><polygon style="fill:#FFFFFF;" points="179.4,86.1 179.4,139.7 125.9,139.7 125.9,418.9 379.1,418.9 379.1,86.1 "/><g> <polygon style="fill:#E6E9EE;" points="179.4,86.1 125.9,139.7 179.4,139.7 "/> <rect x="157.4" y="294.3" style="fill:#E6E9EE;" width="189.6" height="14.6"/> <rect x="157.4" y="325" style="fill:#E6E9EE;" width="189.6" height="14.6"/> <rect x="157.4" y="355.7" style="fill:#E6E9EE;" width="112.3" height="14.6"/> </g><path style="fill:#4CDBC4;" d="M306.9,205.3c0,33.9-27.5,61.3-61.3,61.3s-61.3-27.5-61.3-61.3c0-33.9,27.5-61.4,61.3-61.4v61.4 L306.9,205.3L306.9,205.3z"/><path style="fill:#FF7058;" d="M320.8,191.4h-61.3V130C293.3,130.1,320.8,157.5,320.8,191.4z"/></symbol><symbol id="analytics" viewBox="0 0 505 505"><title>analytics</title><circle style="fill:#FFD05B;" cx="252.5" cy="252.5" r="252.5"/><polygon style="fill:#FFFFFF;" points="179.4,86.1 179.4,139.7 125.9,139.7 125.9,418.9 379.1,418.9 379.1,86.1 "/><polygon style="fill:#E6E9EE;" points="179.4,86.1 125.9,139.7 179.4,139.7 "/><path style="fill:#FF7058;" d="M252.5,337.5c0,2.7-0.2,5.5-0.6,8.1c-3.6,22.6-22.1,40.3-45,42.7c-1.8,0.2-3.6,0.3-5.5,0.3 c-28.3,0-51.2-22.9-51.2-51.1c0-23.5,15.9-43.4,37.6-49.3c4.3-1.2,8.9-1.8,13.6-1.8c13.6,0,26,5.3,35.1,14 C246.4,309.6,252.5,322.8,252.5,337.5z"/><path style="fill:#FFD05B;" d="M236.5,300.3l-35.1,37.2l-13.6-49.3c4.3-1.2,8.9-1.8,13.6-1.8C215,286.3,227.4,291.6,236.5,300.3z"/><path style="fill:#E6E9EE;" d="M252.5,337.5c0,2.7-0.2,5.5-0.6,8.1l-50.5-8.1l35.1-37.1C246.4,309.6,252.5,322.8,252.5,337.5z"/><path style="fill:#4CDBC4;" d="M251.9,345.6c-3.6,22.6-22.1,40.3-45,42.7l-5.5-50.8L251.9,345.6z"/><rect x="268.3" y="299.9" style="fill:#FFD05B;" width="15.4" height="13.6"/><rect x="268.3" y="330.6" style="fill:#4CDBC4;" width="15.4" height="13.6"/><rect x="268.3" y="361.4" style="fill:#FF7058;" width="15.4" height="13.6"/><g> <rect x="294.5" y="299.9" style="fill:#E6E9EE;" width="61.9" height="13.6"/> <rect x="294.5" y="330.6" style="fill:#E6E9EE;" width="61.9" height="13.6"/> <rect x="294.5" y="361.4" style="fill:#E6E9EE;" width="61.9" height="13.6"/> </g><rect x="338.669" y="202.865" transform="matrix(0.7071 -0.7071 0.7071 0.7071 -59.3593 312.5229)" style="fill:#2B3B4E;" width="17.8" height="50.1"/><circle style="fill:#324A5E;" cx="300.4" cy="180.7" r="67.8"/><circle style="fill:#E6E9EE;" cx="300.4" cy="180.7" r="51.3"/><path style="fill:#FF7058;" d="M351.1,254.8l23.3-23.3c0.7-0.7,1.7-0.7,2.4,0l43.1,43.1c0.7,0.7,0.7,1.7,0,2.4l-23.3,23.3 c-0.7,0.7-1.7,0.7-2.4,0l-43.1-43.1C350.5,256.5,350.5,255.4,351.1,254.8z"/><rect x="366.78" y="247.725" transform="matrix(-0.7071 -0.7071 0.7071 -0.7071 470.1389 726.4872)" style="fill:#E6E9EE;" width="37.5" height="36.3"/><g> <rect x="150.2" y="170.3" style="fill:#54C0EB;" width="15.9" height="61.7"/> <rect x="174.8" y="191.9" style="fill:#54C0EB;" width="15.9" height="40.1"/> <rect x="199.4" y="209.4" style="fill:#54C0EB;" width="15.9" height="22.6"/> </g></symbol><symbol id="contract" viewBox="0 0 512 512"><title>contract</title><circle style="fill:#F9B54C;" cx="256" cy="256" r="256"/><path style="fill:#F4A200;" d="M512,256L369.778,113.778l-112.628,176.7L142.222,398.222L256,512C397.384,512,512,397.384,512,256z"/><polygon style="fill:#E9EFF4;" points="193.653,113.778 142.222,165.209 142.222,398.222 369.778,398.222 369.778,113.778 "/><g> <rect x="255.431" y="113.778" style="fill:#CFDBE6;" width="114.347" height="284.444"/> <polygon style="fill:#CFDBE6;" points="193.653,165.209 193.653,113.778 142.222,165.209 "/> </g><g> <rect x="170.667" y="196.525" style="fill:#D0D1D3;" width="170.667" height="5.172"/> <rect x="170.667" y="224.97" style="fill:#D0D1D3;" width="170.667" height="5.172"/> <rect x="170.667" y="253.414" style="fill:#D0D1D3;" width="170.667" height="5.172"/> <rect x="170.667" y="281.859" style="fill:#D0D1D3;" width="170.667" height="5.172"/> <rect x="170.667" y="310.303" style="fill:#D0D1D3;" width="170.667" height="5.172"/> <path style="fill:#D0D1D3;" d="M275.175,353.975c-5.875,0.757-8.654-1.705-12.122-6.089c-0.717-0.907-1.352-1.96-2.345-2.586 c-3.906-2.463-7.689,0.591-11.109,2.488c-3.282,1.822-6.565,3.643-9.847,5.465c-1.655,0.919-7.184,5.068-8.923,4.542 c0.147,0.045-2.727-11.435-3.6-13.034c-1.171-2.145-3.948-1.302-4.727,0.617c-1.072,2.643-2.165,5.501-3.741,7.928 c-2.963,4.563-8.797,8.482-14.65,6.142c-1.651-0.66-2.836-1.905-3.636-3.472c2.229-1.867,4.13-4.237,5.463-6.966 c1.965-4.024,4.618-10.949,2.788-15.4c-1.641-3.993-4.934-4.02-7.858-1.424c-5.601,4.973-8.064,14.093-6.26,21.647 c-3.624,2.103-7.933,2.334-11.91-1.414c-2.422-2.281-6.085,1.369-3.656,3.656c5.311,5.004,11.893,5.211,17.449,2.493 c0.862,1.503,1.933,2.875,3.281,4.013c10.2,8.607,19.301-0.326,24.619-9.519c0.205,2.043,0.205,4.081,0.746,6.32 c0.281,1.162,0.49,2.119,1.358,2.951c3.444,3.303,8.618-0.598,11.643-2.277c3.751-2.082,7.502-4.163,11.254-6.244 c3.381-1.876,5.972-4.239,10.385-1.389c0.743,0.479,1.022,1.693,1.726,2.231c4.308,3.289,8.04,5.217,13.667,4.491 C278.43,358.726,278.471,353.549,275.175,353.975z M202.107,339.609c0.946-1.188,1.117-3.17,1.658-0.884 c0.371,1.565-1.374,5.392-1.995,6.818c-0.648,1.488-1.545,2.95-2.61,4.282C199.132,345.94,200.283,341.897,202.107,339.609z"/> </g><g> <rect x="255.431" y="196.525" style="fill:#A6A8AA;" width="85.906" height="5.172"/> <rect x="255.431" y="224.97" style="fill:#A6A8AA;" width="85.906" height="5.172"/> <rect x="255.431" y="253.414" style="fill:#A6A8AA;" width="85.906" height="5.172"/> <rect x="255.431" y="281.859" style="fill:#A6A8AA;" width="85.906" height="5.172"/> <rect x="255.431" y="310.303" style="fill:#A6A8AA;" width="85.906" height="5.172"/> <path style="fill:#A6A8AA;" d="M275.175,353.975c-5.875,0.757-8.654-1.705-12.122-6.089c-0.717-0.907-1.352-1.96-2.345-2.586 c-1.795-1.131-3.562-1.093-5.282-0.543v6.363c1.286-0.102,2.691,0.229,4.355,1.305c0.743,0.479,1.022,1.693,1.726,2.231 c4.308,3.289,8.04,5.217,13.667,4.491C278.43,358.726,278.471,353.549,275.175,353.975z"/> </g><path style="fill:#324A5E;" d="M304.052,334.202l-23.957-15.334l99.668-155.724c4.234-6.616,13.029-8.547,19.646-4.311l0,0 c6.616,4.234,8.547,13.029,4.311,19.646L304.052,334.202z"/><path style="fill:#2B3B4E;" d="M399.408,158.832L399.408,158.832c-0.071-0.045-0.145-0.079-0.217-0.124L291.955,326.461 l12.097,7.742l99.668-155.726C407.954,171.861,406.023,163.066,399.408,158.832z"/><polygon style="fill:#F9B54C;" points="276.74,350.492 304.052,334.202 280.095,318.867 "/><polygon style="fill:#F4A200;" points="276.77,350.217 276.74,350.492 304.052,334.202 291.955,326.459 "/></symbol><symbol id="clipboard" viewBox="0 0 505 505"><title>clipboard</title><circle style="fill:#FFD05B;" cx="252.5" cy="252.5" r="252.5"/><path style="fill:#324A5E;" d="M379.9,427H125.1c-2.6,0-4.7-2.1-4.7-4.7v-323c0-2.6,2.1-4.7,4.7-4.7H380c2.6,0,4.7,2.1,4.7,4.7v323 C384.6,424.9,382.5,427,379.9,427z"/><polygon style="fill:#FFFFFF;" points="146.4,113.7 146.4,376.5 321.6,376.5 321.6,339.5 358.6,339.5 358.6,113.7 "/><polygon style="fill:#E6E9EE;" points="321.6,376.5 358.6,339.5 321.6,339.5 "/><path style="fill:#FF7058;" d="M273.3,84v-7.3c0-11.5-9.3-20.8-20.8-20.8c-11.5,0-20.8,9.3-20.8,20.8V84H195v42.6h115.1V84H273.3z"/><circle style="fill:#FFD05B;" cx="252.5" cy="76.8" r="10.4"/><rect x="175.7" y="180.4" style="fill:#84DBFF;" width="23.8" height="11"/><rect x="214.3" y="180.4" style="fill:#E6E9EE;" width="115" height="11"/><rect x="175.7" y="214.7" style="fill:#84DBFF;" width="23.8" height="11"/><rect x="214.3" y="214.7" style="fill:#E6E9EE;" width="115" height="11"/><rect x="175.7" y="249" style="fill:#84DBFF;" width="23.8" height="11"/><rect x="214.3" y="249" style="fill:#E6E9EE;" width="115" height="11"/><rect x="175.7" y="283.3" style="fill:#84DBFF;" width="23.8" height="11"/><rect x="214.3" y="283.3" style="fill:#E6E9EE;" width="115" height="11"/></symbol><symbol id="people" viewBox="0 0 508 508"><title>people</title><circle style="fill:#FFD05B;" cx="254" cy="254" r="254"/><rect x="124.8" y="101.2" style="fill:#FFFFFF;" width="258" height="305.6"/><g> <path style="fill:#324A5E;" d="M196.8,141.2c-0.4,0-0.4,0-0.8,0c0-0.4,0-0.8,0-1.2v-0.4c0,0,0,0,0-0.4c-0.4-8.4-6.8-14.8-14.4-14.8 c-7.6,0-14,6.4-14.4,14.8c0,0,0,0,0,0.4v0.4c0,0.4,0,0.8,0,1.2c-0.4,0-0.4,0-0.8,0c-1.2,0.4-2,2.4-1.6,4.8c0.4,2.4,2,4.4,3.2,4 c0,0,0.4,0,0.4-0.4c2,6.4,6.4,12,12.8,12c6.8,0,10.8-5.6,12.8-12l0.4,0.4c1.2,0.4,2.8-1.6,3.2-4 C198.8,143.6,198.4,141.6,196.8,141.2z"/> <path style="fill:#324A5E;" d="M196.4,134.8c-0.4-2.4-1.2-4.4-2-6.8c-0.4-0.8-0.4-1.2-0.8-2c-0.8-1.6-2.4-2.4-4-2.4 c-0.8,0-1.2,0-1.6,0.4c0,0,0,0,0,0.4c-0.4-0.4-0.8-0.8-1.2-1.2c-0.8-0.4-1.2-0.4-2-0.4c-3.6-0.4-6.4,0.4-10,0.8 c-1.6,0.4-4,1.6-5.2,4.4c-0.8,2.4-1.6,4-2,6.8c-0.4,1.6,0,6,0.8,8.4c0,0.4,0.8,0.8,1.2,0c1.2-2,1.6-6,2.4-8 c0.4-0.4,0.4-1.2,0.8-1.6c0.4-0.4,0.4-1.2,0.8-1.6c0.4-0.4,1.2-0.8,1.6-0.4c0.8,0.4,0.8,1.6,1.6,2c0.8,0.8,1.6,0.8,2.8,0.8 c1.6,0,3.2,0,5.2,0c0.8,0,1.2,0,2-0.4s1.2-1.2,1.6-2c0-0.4,0.4-0.8,0.4-1.2c0,0,0,0.4,0.4,0.4c0.8,1.2,1.6,2.8,2.8,3.6 c0.8,0.4,1.6,1.2,2,1.6c1.2,1.6,1.6,3.6,2,5.6c0,0.4,0,0.8,0.4,0.8s0.4,0,0.8-0.4c0-0.4,0-0.4,0-0.8 C196.4,140,196.4,137.6,196.4,134.8z"/> <path style="fill:#324A5E;" d="M211.2,188.8c-2.8-12-15.2-21.2-29.6-21.2c-14.4,0-26.8,9.2-29.6,21.2H211.2z"/> <path style="fill:#324A5E;" d="M196.8,238c-0.4,0-0.4,0-0.8,0c0-0.4,0-0.8,0-1.2v-0.4c0,0,0,0,0-0.4c-0.4-8.4-6.8-14.8-14.4-14.8 c-7.6,0-14,6.4-14.4,14.8c0,0,0,0,0,0.4v0.4c0,0.4,0,0.8,0,1.2c-0.4,0-0.4,0-0.8,0c-1.2,0.4-2,2.4-1.6,4.8c0.4,2.4,2,4.4,3.2,4 c0,0,0.4,0,0.4-0.4c2,6.4,6.4,12,12.8,12c6.8,0,10.8-5.6,12.8-12l0.4,0.4c1.2,0.4,2.8-1.6,3.2-4C198.8,240.4,198.4,238,196.8,238z"/> <path style="fill:#324A5E;" d="M196.4,231.6c-0.4-2.4-1.2-4.4-2-6.8c-0.4-0.8-0.4-1.2-0.8-2c-0.8-1.6-2.4-2.4-4-2.4 c-0.8,0-1.2,0-1.6,0.4c0,0,0,0,0,0.4c-0.4-0.4-0.8-0.8-1.2-1.2c-0.8-0.4-1.2-0.4-2-0.4c-3.6-0.4-6.4,0.4-10,0.8 c-1.6,0.4-4,1.6-5.2,4.4c-0.8,2.4-1.6,4-2,6.8c-0.4,1.6,0,6,0.8,8.4c0,0.4,0.8,0.8,1.2,0c1.2-2,1.6-6,2.4-8 c0.4-0.4,0.4-1.2,0.8-1.6c0.4-0.4,0.4-1.2,0.8-1.6c0.4-0.4,1.2-0.8,1.6-0.4c0.8,0.4,0.8,1.6,1.6,2c0.8,0.8,1.6,0.8,2.8,0.8 c1.6,0,3.2,0,5.2,0c0.8,0,1.2,0,2-0.4s1.2-1.2,1.6-2c0-0.4,0.4-0.8,0.4-1.2c0,0,0,0.4,0.4,0.4c0.8,1.2,1.6,2.8,2.8,3.6 c0.8,0.4,1.6,1.2,2,1.6c1.2,1.6,1.6,3.6,2,5.6c0,0.4,0,0.8,0.4,0.8s0.4,0,0.8-0.4c0-0.4,0-0.4,0-0.8 C196.4,236.8,196.4,234,196.4,231.6z"/> <path style="fill:#324A5E;" d="M211.2,285.6c-2.8-12-15.2-21.2-29.6-21.2c-14.4,0-26.8,9.2-29.6,21.2H211.2z"/> <path style="fill:#324A5E;" d="M196.8,334.8c-0.4,0-0.4,0-0.8,0c0-0.4,0-0.8,0-1.2v-0.4c0,0,0,0,0-0.4c-0.4-8.4-6.8-14.8-14.4-14.8 c-7.6,0-14,6.4-14.4,14.8c0,0,0,0,0,0.4v0.4c0,0.4,0,0.8,0,1.2c-0.4,0-0.4,0-0.8,0c-1.2,0.4-2,2.4-1.6,4.8s2,4.4,3.2,4 c0,0,0.4,0,0.4-0.4c2,6.4,6.4,12,12.8,12c6.8,0,10.8-5.6,12.8-12l0.4,0.4c1.2,0.4,2.8-1.6,3.2-4 C198.8,337.2,198.4,334.8,196.8,334.8z"/> <path style="fill:#324A5E;" d="M196.4,328.4c-0.4-2.4-1.2-4.4-2-6.8c-0.4-0.8-0.4-1.2-0.8-2c-0.8-1.6-2.4-2.4-4-2.4 c-0.8,0-1.2,0-1.6,0.4c0,0,0,0,0,0.4c-0.4-0.4-0.8-0.8-1.2-1.2c-0.8-0.4-1.2-0.4-2-0.4c-3.6-0.4-6.4,0.4-10,0.8 c-1.6,0.4-4,1.6-5.2,4.4c-0.8,2.4-1.6,4-2,6.8c-0.4,1.6,0,6,0.8,8.4c0,0.4,0.8,0.8,1.2,0c1.2-2,1.6-6,2.4-8 c0.4-0.4,0.4-1.2,0.8-1.6c0.4-0.4,0.4-1.2,0.8-1.6c0.4-0.4,1.2-0.8,1.6-0.4c0.8,0.4,0.8,1.6,1.6,2c0.8,0.8,1.6,0.8,2.8,0.8 c1.6,0,3.2,0,5.2,0c0.8,0,1.2,0,2-0.4s1.2-1.2,1.6-2c0-0.4,0.4-0.8,0.4-1.2c0,0,0,0.4,0.4,0.4c0.8,1.2,1.6,2.8,2.8,3.6 c0.8,0.4,1.6,1.2,2,1.6c1.2,1.6,1.6,3.6,2,5.6c0,0.4,0,0.8,0.4,0.8s0.4,0,0.8-0.4c0-0.4,0-0.4,0-0.8 C196.4,333.6,196.4,330.8,196.4,328.4z"/> <path style="fill:#324A5E;" d="M211.2,382.4c-2.8-12-15.2-21.2-29.6-21.2c-14.4,0-26.8,9.2-29.6,21.2H211.2z"/> <rect x="229.6" y="142.4" style="fill:#324A5E;" width="124.8" height="26.8"/> <rect x="229.6" y="239.2" style="fill:#324A5E;" width="124.8" height="26.8"/> <rect x="229.6" y="335.6" style="fill:#324A5E;" width="124.8" height="26.8"/> </g><g> <rect x="236" y="147.6" style="fill:#4CDBC4;" width="94.4" height="16.4"/> <rect x="236" y="244.4" style="fill:#4CDBC4;" width="55.6" height="16.4"/> <rect x="236" y="341.2" style="fill:#4CDBC4;" width="82" height="16.4"/> </g></symbol></svg>