<?xml version="1.0" encoding="iso-8859-1"?>
<!-- Generator: Adobe Illustrator 19.0.0, SVG Export Plug-In . SVG Version: 6.00 Build 0)  -->
<svg version="1.1" id="Capa_1" xmlns="http://www.w3.org/2000/svg" xmlns:xlink="http://www.w3.org/1999/xlink" x="0px" y="0px"
	 viewBox="0 0 512 512" style="enable-background:new 0 0 512 512;" xml:space="preserve">
<circle style="fill:#FAD307;" cx="256" cy="256" r="256"/>
<rect x="69.016" y="23.368" style="fill:#FDFEFF;" width="315.16" height="448"/>
<g>
	<rect x="155.704" y="65.588" style="fill:#D2D2D4;" width="201.24" height="8"/>
	<rect x="155.704" y="86.92" style="fill:#D2D2D4;" width="201.24" height="8"/>
	<rect x="155.704" y="134.432" style="fill:#D2D2D4;" width="201.24" height="8"/>
	<rect x="155.704" y="155.764" style="fill:#D2D2D4;" width="201.24" height="8"/>
	<rect x="155.704" y="203.272" style="fill:#D2D2D4;" width="201.24" height="8"/>
	<rect x="155.704" y="224.6" style="fill:#D2D2D4;" width="201.24" height="8"/>
	<rect x="155.704" y="272.12" style="fill:#D2D2D4;" width="201.24" height="8"/>
	<rect x="155.704" y="293.44" style="fill:#D2D2D4;" width="201.24" height="8"/>
	<rect x="155.704" y="340.96" style="fill:#D2D2D4;" width="201.24" height="8"/>
	<rect x="155.704" y="362.28" style="fill:#D2D2D4;" width="201.24" height="8"/>
</g>
<g>
	<rect x="96.24" y="61.792" style="fill:#70B1E1;" width="36.924" height="36.924"/>
	<rect x="96.24" y="130.636" style="fill:#70B1E1;" width="36.924" height="36.924"/>
	<rect x="96.24" y="199.48" style="fill:#70B1E1;" width="36.924" height="36.924"/>
	<rect x="96.24" y="268.32" style="fill:#70B1E1;" width="36.924" height="36.924"/>
	<rect x="96.24" y="337.16" style="fill:#70B1E1;" width="36.924" height="36.924"/>
</g>
<circle style="fill:#D64331;" cx="353.52" cy="399.16" r="89.472"/>
<circle style="fill:#F1592F;" cx="353.52" cy="399.16" r="72.64"/>
<polygon style="fill:#FDFEFF;" points="342.964,432.704 307.488,397.228 317.996,386.716 342.964,411.68 389.024,365.616 
	399.536,376.128 "/>
<g>
</g>
<g>
</g>
<g>
</g>
<g>
</g>
<g>
</g>
<g>
</g>
<g>
</g>
<g>
</g>
<g>
</g>
<g>
</g>
<g>
</g>
<g>
</g>
<g>
</g>
<g>
</g>
<g>
</g>
</svg>
